<svg xmlns="http://www.w3.org/2000/svg" viewBox="0 0 4210.7 1444.9"><path d="M1445 1444.9h-241.4v-361.1H1445v361.1zm0-602h-241.4V722.4H1445v120.5zm0-361.3H962.3v963.2H482.7V481.6H0V0h1445v481.6zm670.6 74.7v286.4h-87.3V556.3h-101.9v-74.4h291v74.4h-101.8zM2437 842.7V705.2c0-28.6-7.1-53.6-37.1-53.6-29 0-45.3 24-45.3 54v137.1H2271V457.3h83.6V621h1c11.2-20.4 37.8-39.2 72.9-39.2 68.7 0 92.8 53 92.8 104v157H2437zm189.8-289c-27 0-48-20.9-48-45.9 0-24.4 21-45.9 48-45.9 26.4 0 47.9 20.4 47.9 45.9 0 26-21.5 45.9-47.9 45.9zm-41.8 289V588.8h83.6v253.9H2585zm317 0V704.1c0-28.1-7.6-53.6-37.7-53.6-29.5 0-44.8 25.5-44.8 54.6v137.5h-84.1V588.8h81V624h1.1c11.7-22.4 40.8-42.3 75.9-42.3 68.4 0 92.8 53 92.8 104v157H2902zm422.5 0H3221l-83-121.8h-1.7v121.8h-84V457.3h84v234.5h1.7l81.1-103h101.4l-97.9 114.7 101.9 139.2zm86.7-289c-27 0-48-20.9-48-45.9 0-24.4 21-45.9 48-45.9 26.5 0 48 20.4 48 45.9 0 26-21.5 45.9-48 45.9zm-41.9 289V588.8h83.7v253.9h-83.7zm319.7 0V704.1c0-28.1-7.7-53.6-37.8-53.6-29.4 0-44.7 25.5-44.7 54.6v137.5h-84.1V588.8h80.9V624h1c11.7-22.4 40.9-42.3 76-42.3 68.4 0 92.8 53 92.8 104v157H3689zm264 122.4c-44.3 0-96.3-14.2-130.5-39.8l41.8-59.6c24.4 21.4 55.6 32.1 84.2 32.1 48.9 0 71.8-28.6 71.8-70.9v-15.3h-1.6c-15.8 20.4-43.2 33.6-76.9 33.6-77 0-121.3-60.1-121.3-130.5 0-70.3 44.3-133 120.7-133 31.7 0 63.2 12.7 81.2 39.8h1v-32.7h79.1v229.9c-.1 99.4-59.3 146.4-149.5 146.4zm8.2-315.1c-37.8 0-59.7 29.1-59.7 64.3 0 33.6 21.9 64.7 59.7 64.7 38.2 0 61.6-30.1 61.6-64.7 0-34.7-23.9-64.3-61.6-64.3zm-1913.9 507.5v74.4h139.6v72h-139.6V1444h-86.2v-361h237.4v74.4h-151.2zm325.6 294.6c-76.4 0-140.7-53-140.7-136.1 0-83.2 64.3-134.1 140.7-134.1 77 0 141.1 50.9 141.1 134.1.1 83.1-64.1 136.1-141.1 136.1zm0-200.9c-39.4 0-59.7 32.2-59.7 64.8 0 32.5 20.9 65.7 60.1 65.7s60.2-33.2 60.2-65.7c.1-32.6-21.4-64.8-60.6-64.8zm348.1 7.2c-7.6-2-14.8-2.5-21.4-2.5-44.8 0-59.6 36.8-59.6 57.6V1444h-83.7v-253.8h80.6v36.7h1.1c12.8-25.5 37.7-43.9 68.8-43.9 6.6 0 13.8.5 17.8 2l-3.6 73.4zm374.7 185.5v-138.7c0-29-6.6-53.5-36.2-53.5-28.5 0-42.2 26.5-42.2 55.1v137.1h-83.6v-144.8c0-29-11.2-47.4-36.1-47.4-26.6 0-41.8 24-41.8 54.6v137.6h-84v-253.8h80.9v35.1h1.1c11.7-21.3 37.7-42.3 75.9-42.3 36.6 0 62.2 15.8 76.4 43.3 16.9-26.4 43.3-43.3 81.1-43.3 68.8 0 92.3 56.1 92.3 103.9v157h-83.8zM1926.5 0h1444.8v37.1H1926.5z"/></svg>